<?xml version="1.0" encoding="UTF-8" standalone="no"?>
<svg
   xmlns:dc="http://purl.org/dc/elements/1.1/"
   xmlns:cc="http://creativecommons.org/ns#"
   xmlns:rdf="http://www.w3.org/1999/02/22-rdf-syntax-ns#"
   xmlns:svg="http://www.w3.org/2000/svg"
   xmlns="http://www.w3.org/2000/svg"
   xmlns:sodipodi="http://sodipodi.sourceforge.net/DTD/sodipodi-0.dtd"
   xmlns:inkscape="http://www.inkscape.org/namespaces/inkscape"
   id="svg918"
   version="1.1"
   viewBox="0 0 210 297"
   height="297mm"
   width="210mm"
   sodipodi:docname="theorbohead.svg"
   inkscape:version="0.92.3 (2405546, 2018-03-11)">
  <sodipodi:namedview
     pagecolor="#ffffff"
     bordercolor="#666666"
     borderopacity="1"
     objecttolerance="10"
     gridtolerance="10"
     guidetolerance="10"
     inkscape:pageopacity="0"
     inkscape:pageshadow="2"
     inkscape:window-width="3840"
     inkscape:window-height="2066"
     id="namedview11"
     showgrid="false"
     inkscape:snap-center="true"
     inkscape:snap-intersection-paths="true"
     inkscape:snap-page="true"
     inkscape:snap-global="false"
     inkscape:zoom="0.5946522"
     inkscape:cx="-631.20103"
     inkscape:cy="1210.6536"
     inkscape:window-x="-11"
     inkscape:window-y="-11"
     inkscape:window-maximized="1"
     inkscape:current-layer="svg918"
     inkscape:measure-start="188.796,1123.03"
     inkscape:measure-end="0.916686,1123.03"
     inkscape:document-units="mm" />
  <defs
     id="defs912">
    <inkscape:path-effect
       effect="skeletal"
       id="path-effect4584-4"
       is_visible="true"
       pattern="M 646.44602,-152.29148 A 1.0423872,1.0423872 0 0 1 645.40363,-151.24909 1.0423872,1.0423872 0 0 1 644.36124,-152.29148 1.0423872,1.0423872 0 0 1 645.40363,-153.33386 1.0423872,1.0423872 0 0 1 646.44602,-152.29148 Z"
       copytype="repeated"
       prop_scale="1"
       scale_y_rel="false"
       spacing="14.6"
       normal_offset="0"
       tang_offset="0"
       prop_units="false"
       vertical_pattern="false"
       fuse_tolerance="0" />
  </defs>
  <metadata
     id="metadata915">
    <rdf:RDF>
      <cc:Work
         rdf:about="">
        <dc:format>image/svg+xml</dc:format>
        <dc:type
           rdf:resource="http://purl.org/dc/dcmitype/StillImage" />
        <dc:title></dc:title>
      </cc:Work>
    </rdf:RDF>
  </metadata>
  <g
     id="theorbohead-side"
     style="stroke-width:0.4;stroke-miterlimit:4;stroke-dasharray:none">
    <path
       style="fill:none;stroke:#000000;stroke-width:0.4;stroke-linecap:butt;stroke-linejoin:miter;stroke-opacity:1;stroke-miterlimit:4;stroke-dasharray:none"
       d="M 0,64.999996 H 3.5 C 3.4148,81.547436 2.18081,101.10142 10.479766,119.99999"
       id="path891"
       inkscape:connector-curvature="0" />
    <path
       sodipodi:nodetypes="cscccccccccc"
       id="path895"
       style="fill:none;stroke:#000000;stroke-width:0.4;stroke-linecap:butt;stroke-linejoin:miter;stroke-opacity:1;stroke-miterlimit:4;stroke-dasharray:none"
       d="M 0,0 C 9.141959,0.01794792 22.721483,1.4995356 24.841695,23.154094 27.080209,46.016913 9.350179,76.82417 29.000016,99.999996 V 119.99999 H 0 V 92.653306 l 3.92982,-7.7e-4 M -5.5e-4,64.999996 h 3.5 c -0.0852,16.54744 -1.31919,36.101424 6.979766,54.999994 m 18.5208,-19.999994 C 4.94256,100.89883 3.60936,87.074436 3.49945,64.999996"
       inkscape:connector-curvature="0" />
    <path
       id="path820"
       d="m 16.19122,82.893265 a 3.3677082,3.3677082 0 0 1 -3.367708,3.367708 3.3677082,3.3677082 0 0 1 -3.3677081,-3.367708 3.3677082,3.3677082 0 0 1 3.3677081,-3.367708 3.3677082,3.3677082 0 0 1 3.367708,3.367708 z"
       style="opacity:1;vector-effect:none;fill:none;fill-opacity:1;fill-rule:evenodd;stroke:#000000;stroke-width:0.4;stroke-linecap:butt;stroke-linejoin:miter;stroke-miterlimit:4;stroke-dasharray:none;stroke-dashoffset:0;stroke-opacity:1"
       inkscape:connector-curvature="0" />
    <path
       id="circle822"
       d="m 17.272147,53.022499 a 3.3677082,3.3677082 0 0 1 -3.367708,3.367708 3.3677082,3.3677082 0 0 1 -3.367708,-3.367708 3.3677082,3.3677082 0 0 1 3.367708,-3.367708 3.3677082,3.3677082 0 0 1 3.367708,3.367708 z"
       style="opacity:1;vector-effect:none;fill:none;fill-opacity:1;fill-rule:evenodd;stroke:#000000;stroke-width:0.4;stroke-linecap:butt;stroke-linejoin:miter;stroke-miterlimit:4;stroke-dasharray:none;stroke-dashoffset:0;stroke-opacity:1"
       inkscape:connector-curvature="0" />
    <path
       id="circle824"
       d="m 19.850031,23.192532 a 3.3677082,3.3677082 0 0 1 -3.367708,3.367708 3.3677082,3.3677082 0 0 1 -3.367709,-3.367708 3.3677082,3.3677082 0 0 1 3.367709,-3.367709 3.3677082,3.3677082 0 0 1 3.367708,3.367709 z"
       style="opacity:1;vector-effect:none;fill:none;fill-opacity:1;fill-rule:evenodd;stroke:#000000;stroke-width:0.4;stroke-linecap:butt;stroke-linejoin:miter;stroke-miterlimit:4;stroke-dasharray:none;stroke-dashoffset:0;stroke-opacity:1"
       inkscape:connector-curvature="0" />
    <path
       id="circle826"
       d="M 12.284719,11.428983 A 2.3677084,2.3677084 0 0 1 9.9170103,13.796691 2.3677084,2.3677084 0 0 1 7.5493019,11.428983 2.3677084,2.3677084 0 0 1 9.9170103,9.0612743 2.3677084,2.3677084 0 0 1 12.284719,11.428983 Z"
       style="opacity:1;vector-effect:none;fill:none;fill-opacity:1;fill-rule:evenodd;stroke:#000000;stroke-width:0.4;stroke-linecap:butt;stroke-linejoin:miter;stroke-miterlimit:4;stroke-dasharray:none;stroke-dashoffset:0;stroke-opacity:1"
       inkscape:connector-curvature="0" />
    <path
       id="circle828"
       d="M 18.322409,38.152676 A 2.3677084,2.3677084 0 0 1 15.9547,40.520384 2.3677084,2.3677084 0 0 1 13.586992,38.152676 2.3677084,2.3677084 0 0 1 15.9547,35.784967 2.3677084,2.3677084 0 0 1 18.322409,38.152676 Z"
       style="opacity:1;vector-effect:none;fill:none;fill-opacity:1;fill-rule:evenodd;stroke:#000000;stroke-width:0.4;stroke-linecap:butt;stroke-linejoin:miter;stroke-miterlimit:4;stroke-dasharray:none;stroke-dashoffset:0;stroke-opacity:1"
       inkscape:connector-curvature="0" />
    <path
       id="circle830"
       d="m 14.695195,67.925522 a 2.3677084,2.3677084 0 0 1 -2.367708,2.367708 2.3677084,2.3677084 0 0 1 -2.3677085,-2.367708 2.3677084,2.3677084 0 0 1 2.3677085,-2.367709 2.3677084,2.3677084 0 0 1 2.367708,2.367709 z"
       style="opacity:1;vector-effect:none;fill:none;fill-opacity:1;fill-rule:evenodd;stroke:#000000;stroke-width:0.4;stroke-linecap:butt;stroke-linejoin:miter;stroke-miterlimit:4;stroke-dasharray:none;stroke-dashoffset:0;stroke-opacity:1"
       inkscape:connector-curvature="0" />
    <path
       id="circle832"
       d="m -2.7249806,11.136605 a 3.3677082,3.3677082 0 0 1 -3.3677083,3.367709 3.3677082,3.3677082 0 0 1 -3.3677082,-3.367709 3.3677082,3.3677082 0 0 1 3.3677082,-3.3677082 3.3677082,3.3677082 0 0 1 3.3677083,3.3677082 z"
       style="opacity:1;vector-effect:none;fill:none;fill-opacity:1;fill-rule:evenodd;stroke:#000000;stroke-width:0.4;stroke-linecap:butt;stroke-linejoin:miter;stroke-miterlimit:4;stroke-dasharray:none;stroke-dashoffset:0;stroke-opacity:1"
       inkscape:connector-curvature="0" />
    <path
       id="circle834"
       d="m -6.7037985,25.190638 a 2.3677084,2.3677084 0 0 1 -2.3677084,2.367708 2.3677084,2.3677084 0 0 1 -2.3677091,-2.367708 2.3677084,2.3677084 0 0 1 2.3677091,-2.367709 2.3677084,2.3677084 0 0 1 2.3677084,2.367709 z"
       style="opacity:1;vector-effect:none;fill:none;fill-opacity:1;fill-rule:evenodd;stroke:#000000;stroke-width:0.4;stroke-linecap:butt;stroke-linejoin:miter;stroke-miterlimit:4;stroke-dasharray:none;stroke-dashoffset:0;stroke-opacity:1"
       inkscape:connector-curvature="0" />
    <path
       style="opacity:1;vector-effect:none;fill:none;fill-opacity:1;fill-rule:evenodd;stroke:#000000;stroke-width:0.4;stroke-linecap:butt;stroke-linejoin:miter;stroke-miterlimit:4;stroke-dasharray:none;stroke-dashoffset:0;stroke-opacity:1"
       d="M 0,119.99999 V 0 c -9.9576351,0.10364492 -19.757394,6.5815375 -19.807192,22.967158"
       inkscape:connector-curvature="0"
       sodipodi:nodetypes="ccc"
       id="extension-end-shape" />
    <path
       style="opacity:1;vector-effect:none;fill:#ffffff;fill-opacity:1;fill-rule:evenodd;stroke:#000000;stroke-width:0.4;stroke-linecap:butt;stroke-linejoin:miter;stroke-miterlimit:4;stroke-dasharray:none;stroke-dashoffset:0;stroke-opacity:1"
       d="m 49.944284,104.89804 -20.920715,8.14836 -7.452528,0.45227 v -7.27555 l 7.432864,0.34358 18.81813,-3.20262 c 1.153242,-0.0491 1.886495,0.42969 2.122249,1.53396 z"
       id="bass-nut-sideview-shape"
       inkscape:connector-curvature="0"
       sodipodi:nodetypes="ccccccc" />
    <path
       sodipodi:nodetypes="cccc"
       inkscape:connector-curvature="0"
       id="path4580-0-0"
       d="M -19.381707,31.007373 6.72351,30.914412 C 6.43209,78.463423 4.1772241,61.558233 7.0874466,87.648225 L 28.900894,99.970703"
       style="fill:none;stroke:#000000;stroke-width:0.40000001;stroke-linecap:butt;stroke-linejoin:miter;stroke-miterlimit:4;stroke-dasharray:0.4, 1.20000001;stroke-dashoffset:0;stroke-opacity:1" />
  </g>
  <g
     id="theorbohead-front"
     style="stroke-width:0.4;stroke-miterlimit:4;stroke-dasharray:none">
    <path
       style="opacity:1;vector-effect:none;fill:none;fill-opacity:1;fill-rule:evenodd;stroke:#000000;stroke-width:0.4;stroke-linecap:butt;stroke-linejoin:miter;stroke-miterlimit:4;stroke-dasharray:none;stroke-dashoffset:0;stroke-opacity:1"
       d="M -12.749816,-88.095704 12.749816,-88.017049"
       id="extension-front-end"
       inkscape:connector-curvature="0"
       sodipodi:nodetypes="cc" />
    <path
       sodipodi:nodetypes="cccccccccccccccc"
       inkscape:connector-curvature="0"
       id="path4550"
       d="m 0,0 h 25 v -20 c -4.05127,-4.5506 -4.96315,-12.3611 -5.38443,-17.753759 L 13.20208,-120 H 5 l 6.40531,91.504484 -0.340964,-4.870918 h -22.1287 L -11.40771,-28.461346 -5,-120 h -8.20208 l -6.413501,82.246241 C -20.036851,-32.3611 -20.948731,-24.5506 -25.000001,-20 V 0 H 0"
       style="fill:#ffffff;fill-opacity:1;stroke:#040404;stroke-width:0.4;stroke-linecap:butt;stroke-linejoin:miter;stroke-opacity:1;stroke-miterlimit:4;stroke-dasharray:none" />
    <path
       inkscape:connector-curvature="0"
       id="path885"
       d="M -25.000002,-19.999999 H 25"
       style="opacity:1;vector-effect:none;fill:none;fill-opacity:1;fill-rule:evenodd;stroke:#000000;stroke-width:0.4;stroke-linecap:butt;stroke-linejoin:miter;stroke-miterlimit:4;stroke-dasharray:none;stroke-dashoffset:0;stroke-opacity:1" />
    <path
       sodipodi:nodetypes="ccc"
       inkscape:connector-curvature="0"
       id="path889"
       d="m -8.39248,-71.535989 c -2.39829,0.210373 -4.64843,0.252299 -5.8714,6.199547 -2.298986,15.112148 -1.019996,39.500906 -7.370794,45.336443 l 10.226964,-8.461347"
       style="opacity:1;vector-effect:none;fill:none;fill-opacity:1;fill-rule:evenodd;stroke:#000000;stroke-width:0.4;stroke-linecap:butt;stroke-linejoin:miter;stroke-miterlimit:4;stroke-dasharray:none;stroke-dashoffset:0;stroke-opacity:1" />
    <path
       style="opacity:1;vector-effect:none;fill:none;fill-opacity:1;fill-rule:evenodd;stroke:#000000;stroke-width:0.4;stroke-linecap:butt;stroke-linejoin:miter;stroke-miterlimit:4;stroke-dasharray:none;stroke-dashoffset:0;stroke-opacity:1"
       d="m 8.39248,-71.535989 c 2.39829,0.210373 4.64843,0.252299 5.8714,6.199547 2.29898,15.112148 1.01999,39.500906 7.37079,45.336443 l -10.22936,-8.495517"
       id="path891-2"
       inkscape:connector-curvature="0"
       sodipodi:nodetypes="ccc" />
    <path
       style="opacity:1;vector-effect:none;fill:#ffffff;fill-opacity:1;fill-rule:evenodd;stroke:#000000;stroke-width:0.4;stroke-linecap:butt;stroke-linejoin:miter;stroke-miterlimit:4;stroke-dasharray:none;stroke-dashoffset:0;stroke-opacity:1"
       d="m 1.6407087,-15.012743 c 0.9791873,2.281712 3.5158912,6.6924504 8.1629251,6.9098997 1.1522072,-2.4600877 4.9714142,-1.0669349 4.8515102,1.029462 h -39.669 c -3.842398,-2.2046097 -5.541467,-4.9356507 -6.408681,-7.8710077"
       id="bass-nut-bottom"
       inkscape:connector-curvature="0"
       sodipodi:nodetypes="ccccc" />
    <path
       style="opacity:1;vector-effect:none;fill:#ffffff;fill-opacity:1;fill-rule:evenodd;stroke:#000000;stroke-width:0.4;stroke-linecap:butt;stroke-linejoin:miter;stroke-miterlimit:4;stroke-dasharray:none;stroke-dashoffset:0;stroke-opacity:1"
       d="M 1.6812434,-14.954221 0.66045478,-14.947269 -31.412706,-14.954221 C -31.116284,-16.165458 -30.256533,-16.33985 -29.61348,-16.350341 H 2.9495498"
       id="bass-nut-top"
       inkscape:connector-curvature="0"
       sodipodi:nodetypes="ccccc" />
    <path
       style="opacity:1;vector-effect:none;fill:none;fill-opacity:1;fill-rule:evenodd;stroke:#000000;stroke-width:0.4;stroke-linecap:butt;stroke-linejoin:miter;stroke-miterlimit:4;stroke-dasharray:none;stroke-dashoffset:0;stroke-opacity:1"
       d="m 1.6812434,-14.954221 c 0.4070504,-1.489417 1.4402697,-1.663596 1.9919093,-1.100946 2.0938137,2.00919 3.824108,2.131405 6.0406974,1.988825 0.2961719,-1.261305 3.8400599,-2.322292 4.9650759,0.648901 l 0.04916,6.407341"
       id="path853"
       inkscape:connector-curvature="0"
       sodipodi:nodetypes="ccccc" />
    <path
       style="opacity:1;vector-effect:none;fill:none;fill-opacity:1;fill-rule:evenodd;stroke:#000000;stroke-width:0.4;stroke-linecap:butt;stroke-linejoin:miter;stroke-miterlimit:4;stroke-dasharray:none;stroke-dashoffset:0;stroke-opacity:1"
       d="m 9.6843552,-14.079188 0.068823,5.9285953"
       id="path857"
       inkscape:connector-curvature="0" />
  </g>
  <g
     id="bassrider-top">
    <path
       id="path3520-5"
       d="M -1.8,0 L 16.7,1.5 L 10.1,75.24 C 9,88.47 7.2,110.1 -3,119.7 C -8,124.3 -13.3,127.7 -15,133.4 L -23.2,132.6 L -13.8,27.1 V 27.1 L -4.6,27.8 C -3.8,18.7 -2.8,9.2 -1.8,0 Z"
       style="opacity:1;vector-effect:none;fill:#ffffff;fill-opacity:1;fill-rule:nonzero;stroke:#000000;stroke-width:0.40000001;stroke-linecap:butt;stroke-linejoin:miter;stroke-miterlimit:4;stroke-dasharray:none;stroke-dashoffset:0;stroke-opacity:1"
       inkscape:connector-curvature="0"
       sodipodi:nodetypes="cccccccccc" />
    <path
       id="path3659"
       d="M 5.8,76.55 C 5.6,78.52 5.3,80.13 5.1,80.16 C 4.9,80.38 4.8,78.71 5,76.57 C 5.2,74.57 5.5,72.95 5.7,72.97 C 5.9,72.75 6,74.41 5.8,76.55 Z"
       style="opacity:1;vector-effect:none;fill:none;fill-opacity:1;fill-rule:nonzero;stroke:#000000;stroke-width:0.40000001;stroke-linecap:butt;stroke-linejoin:miter;stroke-miterlimit:4;stroke-dasharray:none;stroke-dashoffset:0;stroke-opacity:1"
       inkscape:connector-curvature="0" />
    <path
       id="path3657"
       d="M -8.6,75.21 C -8.8,77.18 -9,78.76 -9.1,78.73 C -9.2,78.63 -9.1,77.08 -8.9,75.16 C -8.8,73.19 -8.5,71.61 -8.4,71.64 C -8.4,71.74 -8.4,73.29 -8.6,75.21 Z"
       style="opacity:1;vector-effect:none;fill:none;fill-opacity:1;fill-rule:nonzero;stroke:#000000;stroke-width:0.40000001;stroke-linecap:butt;stroke-linejoin:miter;stroke-miterlimit:4;stroke-dasharray:none;stroke-dashoffset:0;stroke-opacity:1"
       inkscape:connector-curvature="0" />
    <path
       id="path3655"
       d="M 1.2,98.35 C 1,100.3 0.2,101.8 -0.5,101.9 C -1.3,101.9 -1.6,100.3 -1.4,98.36 C -1.1,96.43 -0.3,94.87 0.4,94.86 C 1.1,94.86 1.5,96.42 1.2,98.35 Z"
       style="opacity:1;vector-effect:none;fill:none;fill-opacity:1;fill-rule:nonzero;stroke:#000000;stroke-width:0.40000001;stroke-linecap:butt;stroke-linejoin:miter;stroke-miterlimit:4;stroke-dasharray:none;stroke-dashoffset:0;stroke-opacity:1"
       inkscape:connector-curvature="0" />
    <path
       id="path3653"
       d="M -12.1,97.3 C -12.3,99.29 -12.8,100.9 -13.2,100.8 C -13.7,100.7 -13.8,99.12 -13.6,97.13 C -13.3,95.14 -12.8,93.57 -12.4,93.61 C -12,93.61 -11.8,95.31 -12.1,97.3 Z"
       style="opacity:1;vector-effect:none;fill:none;fill-opacity:1;fill-rule:nonzero;stroke:#000000;stroke-width:0.40000001;stroke-linecap:butt;stroke-linejoin:miter;stroke-miterlimit:4;stroke-dasharray:none;stroke-dashoffset:0;stroke-opacity:1"
       inkscape:connector-curvature="0" />
    <path
       id="path3651"
       d="M -10.8,51.6 L -7.3,51.9"
       style="opacity:1;vector-effect:none;fill:none;fill-opacity:1;fill-rule:nonzero;stroke:#000000;stroke-width:0.40000001;stroke-linecap:butt;stroke-linejoin:miter;stroke-miterlimit:4;stroke-dasharray:none;stroke-dashoffset:0;stroke-opacity:1"
       inkscape:connector-curvature="0" />
    <path
       id="path3649"
       d="M -8.3,50.3 L -7.1,50.5"
       style="opacity:1;vector-effect:none;fill:none;fill-opacity:1;fill-rule:nonzero;stroke:#000000;stroke-width:0.40000001;stroke-linecap:butt;stroke-linejoin:miter;stroke-miterlimit:4;stroke-dasharray:none;stroke-dashoffset:0;stroke-opacity:1"
       inkscape:connector-curvature="0" />
    <path
       id="path3647"
       d="M -7.3,99.46 C 6.5,88.03 8.1,44.1 10.4,24.5"
       style="opacity:1;vector-effect:none;fill:none;fill-opacity:1;fill-rule:nonzero;stroke:#000000;stroke-width:0.40000001;stroke-linecap:butt;stroke-linejoin:miter;stroke-miterlimit:4;stroke-dasharray:none;stroke-dashoffset:0;stroke-opacity:1"
       inkscape:connector-curvature="0" />
    <path
       id="path3645"
       d="M -9.4,120.4 L -7.9,102.4"
       style="opacity:1;vector-effect:none;fill:none;fill-opacity:1;fill-rule:nonzero;stroke:#000000;stroke-width:0.40000001;stroke-linecap:butt;stroke-linejoin:miter;stroke-miterlimit:4;stroke-dasharray:none;stroke-dashoffset:0;stroke-opacity:1"
       inkscape:connector-curvature="0" />
    <path
       id="path3643"
       d="M -14.5,55.5 L -18,93.86 C -18,94.94 -17.6,96.86 -16.3,94.41 C -10.7,82.13 -8.3,66.7 -7.1,50.2 C -6.8,45.8 -8.1,49 -8.3,50.4 C -8.2,44.9 -10.1,47.7 -10.9,51.7 C -11.5,47.5 -14.2,51.5 -14.5,55.5 Z"
       style="opacity:1;vector-effect:none;fill:none;fill-opacity:1;fill-rule:nonzero;stroke:#000000;stroke-width:0.40000001;stroke-linecap:butt;stroke-linejoin:miter;stroke-miterlimit:4;stroke-dasharray:none;stroke-dashoffset:0;stroke-opacity:1"
       inkscape:connector-curvature="0" />
    <path
       id="path3641"
       d="M -23.1,132.5 C -21.8,119.3 -16.8,123.1 -12.1,102.7 C -10.1,94.12 -8.9,81.69 -7.5,64.7 L -2.3,4.5"
       style="opacity:1;vector-effect:none;fill:none;fill-opacity:1;fill-rule:nonzero;stroke:#000000;stroke-width:0.40000001;stroke-linecap:butt;stroke-linejoin:miter;stroke-miterlimit:4;stroke-dasharray:none;stroke-dashoffset:0;stroke-opacity:1"
       inkscape:connector-curvature="0" />
    <path
       id="path3639"
       d="M 0.2,23.7 L 10.4,24.6"
       style="opacity:1;vector-effect:none;fill:none;fill-opacity:1;fill-rule:nonzero;stroke:#000000;stroke-width:0.40000001;stroke-linecap:butt;stroke-linejoin:miter;stroke-miterlimit:4;stroke-dasharray:none;stroke-dashoffset:0;stroke-opacity:1"
       inkscape:connector-curvature="0" />
    <path
       id="path3637"
       d="M 1.7,4.9 L -3.9,70.5 C -5.3,87.34 -6.7,107 -14.2,120 L -9.4,120.4 C 3.7,112.5 5.2,85.19 6.9,66.5 L 12.2,5.8"
       style="opacity:1;vector-effect:none;fill:none;fill-opacity:1;fill-rule:nonzero;stroke:#000000;stroke-width:0.40000001;stroke-linecap:butt;stroke-linejoin:miter;stroke-miterlimit:4;stroke-dasharray:none;stroke-dashoffset:0;stroke-opacity:1"
       inkscape:connector-curvature="0" />
    <path
       id="path3635"
       d="M -2.3,4.5 L 16.2,6.1"
       style="opacity:1;vector-effect:none;fill:none;fill-opacity:1;fill-rule:nonzero;stroke:#000000;stroke-width:0.40000001;stroke-linecap:butt;stroke-linejoin:miter;stroke-miterlimit:4;stroke-dasharray:none;stroke-dashoffset:0;stroke-opacity:1"
       inkscape:connector-curvature="0" />
    <path
       id="path3633"
       d="M -13.7,27.2 C -13.5,28.6 -12.5,31.8 -11.2,31.6 C -8.4,31.1 -4.7,29.3 -4.6,27.8"
       style="opacity:1;vector-effect:none;fill:none;fill-opacity:1;fill-rule:nonzero;stroke:#000000;stroke-width:0.40000001;stroke-linecap:butt;stroke-linejoin:miter;stroke-miterlimit:4;stroke-dasharray:none;stroke-dashoffset:0;stroke-opacity:1"
       inkscape:connector-curvature="0" />
  </g>
  <g
     id="bassrider-front">
    <path
       sodipodi:nodetypes="ccsssssccccccccccccccccc"
       inkscape:connector-curvature="0"
       id="path3702"
       d="M 1.9,-9.6 H 5.9 C 7,-9.5 7.5,-8.4 7.8,-7.5 C 8.5,-5.8 8.9,-3.8 9.4,-1.8 C 10,1.1 10.5,4 11.1,6.9 C 12,11.53 13.1,16.06 14.4,20.5 C 16,25.67 17.9,30.72 20.3,35.51 C 21.2,37.23 21.9,37.9 22.7,37.61 L 14.9,56.42 L 5,56.26 C -5.1,46.14 -10.8,31.52 -12.4,19.17 H -13.6 C -14.5,18.47 -14.7,14.47 -14.7,12.76 C -15.2,12.76 -15.4,8.7 -15.2,6.7 C -15.7,6.6 -15.7,1.8 -15.6,0.1 C -15.8,-0.3 -16.3,-5.2 -15.2,-6.6 C -14.9,-7.4 -14.1,-9.6 -12.7,-9.8 H -8.5 C -7,-9.6 -6.3,-7.8 -6,-6.6 L -0.7,-6.5 C -0.2,-7.6 0.6,-9.4 2,-9.6 M 6,-9.6 C 4.6,-9.6 3.7,-7.5 3.3,-6.4 L -0.7,-6.5"
       style="opacity:1;vector-effect:none;fill:#ffffff;fill-opacity:1;fill-rule:evenodd;stroke:#000000;stroke-width:0.40000001;stroke-linecap:butt;stroke-linejoin:miter;stroke-miterlimit:4;stroke-dasharray:none;stroke-dashoffset:0;stroke-opacity:1" />
    <path
       id="path3722"
       d="M 14.1,23.45 A 3.566,0.456 78.12 0 1 14.4,27.03 A 3.566,0.456 78.12 0 1 13.2,23.63 A 3.566,0.456 78.12 0 1 13,20.05 A 3.566,0.456 78.12 0 1 14.1,23.45 Z"
       style="opacity:1;vector-effect:none;fill:none;fill-opacity:1;fill-rule:evenodd;stroke:#000000;stroke-width:0.40000001;stroke-linecap:butt;stroke-linejoin:miter;stroke-miterlimit:4;stroke-dasharray:none;stroke-dashoffset:0;stroke-opacity:1"
       inkscape:connector-curvature="0" />
    <path
       id="path3720"
       d="M 5.4,0 A 0.2935,3.526 0.435 0 1 5.1,3.4 A 0.2935,3.526 0.435 0 1 4.8,0 A 0.2935,3.526 0.435 0 1 5.2,-3.6 A 0.2935,3.526 0.435 0 1 5.4,0 Z"
       style="opacity:1;vector-effect:none;fill:none;fill-opacity:1;fill-rule:evenodd;stroke:#000000;stroke-width:0.40000001;stroke-linecap:butt;stroke-linejoin:miter;stroke-miterlimit:4;stroke-dasharray:none;stroke-dashoffset:0;stroke-opacity:1"
       inkscape:connector-curvature="0" />
    <path
       id="path3718"
       d="M 7.6,1.2 A 0.2923,3.52 0 0 1 7.3,4.7 A 0.2923,3.52 0 0 1 7,1.2 A 0.2923,3.52 0 0 1 7.3,-2.4 A 0.2923,3.52 0 0 1 7.6,1.2 Z"
       style="opacity:1;vector-effect:none;fill:none;fill-opacity:1;fill-rule:evenodd;stroke:#000000;stroke-width:0.40000001;stroke-linecap:butt;stroke-linejoin:miter;stroke-miterlimit:4;stroke-dasharray:none;stroke-dashoffset:0;stroke-opacity:1"
       inkscape:connector-curvature="0" />
    <path
       id="path3716"
       d="M 10,8.4 A 3.517,0.381 87.03 0 1 9.8,11.96 A 3.517,0.381 87.03 0 1 9.3,8.5 A 3.517,0.381 87.03 0 1 9.4,4.9 A 3.517,0.381 87.03 0 1 10,8.4 Z"
       style="opacity:1;vector-effect:none;fill:none;fill-opacity:1;fill-rule:evenodd;stroke:#000000;stroke-width:0.40000001;stroke-linecap:butt;stroke-linejoin:miter;stroke-miterlimit:4;stroke-dasharray:none;stroke-dashoffset:0;stroke-opacity:1"
       inkscape:connector-curvature="0" />
    <path
       id="path3712"
       d="M 3.2,6.8 L -15.2,6.6"
       style="opacity:1;vector-effect:none;fill:none;fill-opacity:1;fill-rule:evenodd;stroke:#000000;stroke-width:0.40000001;stroke-linecap:butt;stroke-linejoin:miter;stroke-miterlimit:4;stroke-dasharray:none;stroke-dashoffset:0;stroke-opacity:1"
       inkscape:connector-curvature="0" />
    <path
       id="path3710"
       d="M 3.5,12.88 L -14.8,12.64"
       style="opacity:1;vector-effect:none;fill:none;fill-opacity:1;fill-rule:evenodd;stroke:#000000;stroke-width:0.40000001;stroke-linecap:butt;stroke-linejoin:miter;stroke-miterlimit:4;stroke-dasharray:none;stroke-dashoffset:0;stroke-opacity:1"
       inkscape:connector-curvature="0" />
    <path
       id="path3708"
       d="M 4.6,19.37 L -13.6,19.13"
       style="opacity:1;vector-effect:none;fill:none;fill-opacity:1;fill-rule:evenodd;stroke:#000000;stroke-width:0.40000001;stroke-linecap:butt;stroke-linejoin:miter;stroke-miterlimit:4;stroke-dasharray:none;stroke-dashoffset:0;stroke-opacity:1"
       inkscape:connector-curvature="0" />
    <path
       id="path3700"
       d="M 2.7,0.3 L -15.7,0"
       style="opacity:1;vector-effect:none;fill:none;fill-opacity:1;fill-rule:evenodd;stroke:#000000;stroke-width:0.40000001;stroke-linecap:butt;stroke-linejoin:miter;stroke-miterlimit:4;stroke-dasharray:none;stroke-dashoffset:0;stroke-opacity:1"
       inkscape:connector-curvature="0" />
    <path
       id="path3688"
       d="M 3.3,-6.4 C 2.6,-4.4 2.6,-1.7 2.8,0.3 L 2.9,0.2 L 3.4,-0.8 Z"
       style="opacity:1;vector-effect:none;fill:none;fill-opacity:1;fill-rule:evenodd;stroke:#000000;stroke-width:0.40000001;stroke-linecap:butt;stroke-linejoin:miter;stroke-miterlimit:4;stroke-dasharray:none;stroke-dashoffset:0;stroke-opacity:1"
       inkscape:connector-curvature="0" />
    <path
       sodipodi:nodetypes="cscccccccc"
       inkscape:connector-curvature="0"
       id="path3686"
       d="M 2.9,0.2 C 2.7,2.5 2.9,6.9 3.2,6.9 H 3.3 C 3.1,8.6 3.2,12.97 3.5,12.96 C 3.7,12.96 3.7,12.64 3.7,12.46 C 3.8,14.39 3.7,19.43 4.6,19.48 C 5.2,19.29 5,16.46 5.4,16.42 C 5.8,16.32 6,21.81 6.2,23.96 C 7,33.04 9.7,42.47 12.7,50.2 C 13.6,52.5 14.3,54.34 14.8,56.37"
       style="opacity:1;vector-effect:none;fill:none;fill-opacity:1;fill-rule:evenodd;stroke:#000000;stroke-width:0.40000001;stroke-linecap:butt;stroke-linejoin:miter;stroke-miterlimit:4;stroke-dasharray:none;stroke-dashoffset:0;stroke-opacity:1" />
    <path
       id="path3684"
       d="M 18.6,42.1 C 18,38.35 14.4,32.03 12.3,26.89 C 11.6,25.71 10,19.46 8.5,19.32 C 7.7,19.58 8.1,22.03 8.2,23.05 C 8.5,25.28 8.8,27.39 9.3,29.2 C 9.8,32.58 10.1,36.78 11.9,39.32 C 12.2,41.01 13.5,47.25 15.5,48.19 Z"
       style="opacity:1;vector-effect:none;fill:none;fill-opacity:1;fill-rule:evenodd;stroke:#000000;stroke-width:0.40000001;stroke-linecap:butt;stroke-linejoin:miter;stroke-miterlimit:4;stroke-dasharray:none;stroke-dashoffset:0;stroke-opacity:1"
       inkscape:connector-curvature="0" />
    <path
       sodipodi:nodetypes="cc"
       inkscape:connector-curvature="0"
       id="path3682"
       d="M -11.2,-6.6 H -15.2"
       style="opacity:1;vector-effect:none;fill:none;fill-opacity:1;fill-rule:evenodd;stroke:#000000;stroke-width:0.40000001;stroke-linecap:butt;stroke-linejoin:miter;stroke-miterlimit:4;stroke-dasharray:none;stroke-dashoffset:0;stroke-opacity:1" />
    <path
       id="path3235"
       d="M -8.5,-9.8 C -10.2,-9.8 -10.9,-7.6 -11.2,-6.6 H -6"
       style="opacity:1;vector-effect:none;fill:none;fill-opacity:1;fill-rule:evenodd;stroke:#000000;stroke-width:0.40000001;stroke-linecap:butt;stroke-linejoin:miter;stroke-miterlimit:4;stroke-dasharray:none;stroke-dashoffset:0;stroke-opacity:1"
       inkscape:connector-curvature="0" />
  </g>
  <g
     id="bassrider-side">
    <path
       d="M -30.9,-1 C -30.7,-2.6 -29.4,-3.8 -27.8,-4 C -26.4,-3.5 -25.4,-2.2 -25.4,-0.7 C -25.4,1.2 -27,2.8 -28.8,2.8 C -30.3,2.2 -31.1,0.6 -30.9,-1 Z M -55.5,0.2 C -55.3,-1.4 -54,-2.6 -52.4,-2.8 C -51,-2.3 -50,-1 -50,0.6 C -50,2.5 -51.6,4.1 -53.4,4.1 C -54.9,3.5 -55.7,1.9 -55.5,0.2 Z M -78.8,7.7 C -78.6,6.1 -77.3,4.9 -75.7,4.7 C -74.3,5.2 -73.3,6.5 -73.3,8 C -73.3,9.9 -74.9,11.5 -76.7,11.5 C -78.2,10.9 -79,9.3 -78.8,7.7 Z M -100.7,22.7 C -100.5,21.1 -99.2,19.9 -97.6,19.7 C -96.2,20.2 -95.2,21.5 -95.2,23 C -95.2,24.9 -96.8,26.5 -98.6,26.5 C -100.1,25.9 -100.9,24.3 -100.7,22.7 Z M -94.6,37.7 C -96.9,39.9 -94.8,42 -93.8,42.1 L -56.1,47.6 C -51.3,47.9 -49.4,41.8 -53,38.7 C -47.9,37.8 -47.2,31.1 -51.8,28.5 C -47.6,25.7 -49.6,19.8 -53.5,19 C -64.1,18.3 -79.1,23.3 -94.6,37.7 Z M -133.4,39.6 L -28.3,55.8 L -27.5,55.4 C -29.9,53.2 -31.9,51 -31.6,47.7 C -30.6,37.7 -29.3,27.7 -28,17.7 C -27.6,16.4 -27,16.2 -26.4,16 C -20.7,19.6 -11.8,21.8 -10.2,12.5 C -5.8,13.4 -3.5,9.5 -5.7,6.5 C -1.9,6.9 -1.1,2.2 -1,0 H 0 C 0.8,-4.4 -0.9,-6.9 -5.8,-7 C -57.4,-17.6 -95.1,-2.3 -122.5,35.4 C -124.6,38.6 -127.7,40.6 -133.4,39.7 Z"
       style="opacity:1;vector-effect:none;fill:#ffffff;fill-opacity:1;fill-rule:evenodd;stroke:#000000;stroke-width:0.40000001;stroke-linecap:butt;stroke-linejoin:miter;stroke-miterlimit:4;stroke-dasharray:none;stroke-dashoffset:0;stroke-opacity:1"
       id="path3756-8"
       inkscape:connector-curvature="0" />
    <path
       sodipodi:nodetypes="ccc"
       inkscape:connector-curvature="0"
       id="path3772"
       d="M -53.5,19 C -69.2,16.8 -88,28.9 -96.1,37.9 C -97.4,39.5 -96.5,41.7 -94,42.1"
       style="opacity:1;vector-effect:none;fill:none;fill-opacity:1;fill-rule:evenodd;stroke:#000000;stroke-width:0.40000001;stroke-linecap:butt;stroke-linejoin:miter;stroke-miterlimit:4;stroke-dasharray:none;stroke-dashoffset:0;stroke-opacity:1" />
    <path
       id="path3779"
       d="M -98.7,26.5 C -100.6,26.5 -102.2,24.9 -102.2,23 C -102.2,21.1 -100.6,19.5 -98.7,19.5 C -98.3,19.5 -97.9,19.6 -97.5,19.7"
       style="opacity:1;vector-effect:none;fill:none;fill-opacity:1;fill-rule:evenodd;stroke:#000000;stroke-width:0.40000001;stroke-linecap:butt;stroke-linejoin:miter;stroke-miterlimit:4;stroke-dasharray:none;stroke-dashoffset:0;stroke-opacity:1"
       inkscape:connector-curvature="0" />
    <path
       id="path3746"
       d="M -28.3,55.8 C -29.7,54.3 -32.8,51.5 -32.8,48 C -32,37 -30.8,27.2 -29.5,17.4 C -29,15.9 -28.1,15.3 -26.5,16 C -24,17.3 -13.7,23.5 -11.7,11.8 C -6.9,13.9 -5.2,8.3 -7.5,6.3 C -3.2,6.7 -2.6,1.4 -2.6,-0.4 L -1.6,-0.3 C -0.8,-6 -3.4,-6.3 -5.7,-7"
       style="opacity:1;vector-effect:none;fill:none;fill-opacity:1;fill-rule:evenodd;stroke:#000000;stroke-width:0.40000001;stroke-linecap:butt;stroke-linejoin:miter;stroke-miterlimit:4;stroke-dasharray:none;stroke-dashoffset:0;stroke-opacity:1"
       inkscape:connector-curvature="0" />
    <path
       id="path3779-6"
       d="M -76.8,11.5 C -78.7,11.5 -80.3,9.9 -80.3,8 C -80.3,6.1 -78.7,4.5 -76.8,4.5 C -76.4,4.5 -76,4.6 -75.6,4.7"
       style="opacity:1;vector-effect:none;fill:none;fill-opacity:1;fill-rule:evenodd;stroke:#000000;stroke-width:0.40000001;stroke-linecap:butt;stroke-linejoin:miter;stroke-miterlimit:4;stroke-dasharray:none;stroke-dashoffset:0;stroke-opacity:1"
       inkscape:connector-curvature="0" />
    <path
       id="path3779-2"
       d="M -53.5,4.1 C -55.4,4.1 -57,2.5 -57,0.6 C -57,-1.4 -55.4,-3 -53.5,-3 C -53.1,-3 -52.7,-2.9 -52.3,-2.8"
       style="opacity:1;vector-effect:none;fill:none;fill-opacity:1;fill-rule:evenodd;stroke:#000000;stroke-width:0.40000001;stroke-linecap:butt;stroke-linejoin:miter;stroke-miterlimit:4;stroke-dasharray:none;stroke-dashoffset:0;stroke-opacity:1"
       inkscape:connector-curvature="0" />
    <path
       id="path3779-23"
       d="M -28.9,2.8 C -30.8,2.8 -32.5,1.2 -32.5,-0.7 C -32.5,-2.6 -30.8,-4.2 -28.9,-4.2 C -28.5,-4.2 -28.1,-4.1 -27.7,-4"
       style="opacity:1;vector-effect:none;fill:none;fill-opacity:1;fill-rule:evenodd;stroke:#000000;stroke-width:0.40000001;stroke-linecap:butt;stroke-linejoin:miter;stroke-miterlimit:4;stroke-dasharray:none;stroke-dashoffset:0;stroke-opacity:1"
       inkscape:connector-curvature="0" />
    <path
       style="opacity:1;vector-effect:none;fill:none;fill-opacity:1;fill-rule:evenodd;stroke:#000000;stroke-width:0.40000001;stroke-linecap:butt;stroke-linejoin:miter;stroke-miterlimit:4;stroke-dasharray:none;stroke-dashoffset:0;stroke-opacity:1"
       d="M 0,0 L -6.4,-1 L -5.8,-7.1"
       id="path3826"
       inkscape:connector-curvature="0"
       sodipodi:nodetypes="ccc" />
  </g>
</svg>
