<?xml version="1.0" encoding="UTF-8" standalone="no"?>
<!-- Created with Inkscape (http://www.inkscape.org/) -->

<svg
   xmlns:dc="http://purl.org/dc/elements/1.1/"
   xmlns:cc="http://creativecommons.org/ns#"
   xmlns:rdf="http://www.w3.org/1999/02/22-rdf-syntax-ns#"
   xmlns:svg="http://www.w3.org/2000/svg"
   xmlns="http://www.w3.org/2000/svg"
   xmlns:sodipodi="http://sodipodi.sourceforge.net/DTD/sodipodi-0.dtd"
   xmlns:inkscape="http://www.inkscape.org/namespaces/inkscape"
   width="210mm"
   height="297mm"
   viewBox="0 0 210 297"
   version="1.1"
   id="svg5544"
   inkscape:version="0.92.3 (2405546, 2018-03-11)"
   sodipodi:docname="theorbohead_Harz.svg">
  <defs
     id="defs5538" />
  <sodipodi:namedview
     id="base"
     pagecolor="#ffffff"
     bordercolor="#666666"
     borderopacity="1.0"
     inkscape:pageopacity="0.0"
     inkscape:pageshadow="2"
     inkscape:zoom="0.7"
     inkscape:cx="-224.1343"
     inkscape:cy="1023.781"
     inkscape:document-units="mm"
     inkscape:current-layer="layer1"
     showgrid="false"
     inkscape:snap-center="true"
     inkscape:snap-midpoints="true"
     inkscape:snap-page="true"
     inkscape:window-width="1919"
     inkscape:window-height="2054"
     inkscape:window-x="-9"
     inkscape:window-y="0"
     inkscape:window-maximized="0" />
  <metadata
     id="metadata5541">
    <rdf:RDF>
      <cc:Work
         rdf:about="">
        <dc:format>image/svg+xml</dc:format>
        <dc:type
           rdf:resource="http://purl.org/dc/dcmitype/StillImage" />
        <dc:title></dc:title>
      </cc:Work>
    </rdf:RDF>
  </metadata>
  <g
     inkscape:label="Layer 1"
     inkscape:groupmode="layer"
     id="layer1">
    <g
       id="theorbohead-side">
      <path
         sodipodi:nodetypes="cccsscccccsscccc"
         inkscape:connector-curvature="0"
         id="path4543-0-1"
         d="M 33.16717,26.59447 C 35.28238,27.43948 38.1725,29.26159 38.97066,34.59467 L 38.91116,39.44048 C 39.01628,42.47726 37.59344,55.37384 28.00818,55.52638 23.55149,55.59728 19.79294,53.24769 19.86273,47.39804 19.92403,42.25861 22.15337,40.25805 22.15337,40.25805 1.87578,34.76695 0.05089,57.36459 0.05089,60.58441 L 1e-5,1e-5 C 5.79768,-17.3885 13.31357,-52.75104 12.83901,-68.93724 5.51341,-68.36974 0.23718,-72.31553 0.2575,-80.12538 0.32253,-88.46031 4.64814,-95.75885 18.4692,-93.95658 38.83071,-91.30143 36.1126,-68.30756 35.83208,-58.16916 35.06195,-30.33622 25.92606,-12.68771 25.67752,9.11169 26.09673,17.51001 28.52106,20.50602 34.44995,17.765 36.402,20.85199 36.40169,23.68688 33.16718,26.59449 Z"
         style="fill:none;fill-opacity:0.29577463;stroke:#020000;stroke-width:0.40000001;stroke-linecap:butt;stroke-linejoin:miter;stroke-miterlimit:4;stroke-dasharray:none;stroke-opacity:1"
         inkscape:transform-center-x="106.11624"
         inkscape:transform-center-y="-10.62804" />
      <path
         sodipodi:nodetypes="cccc"
         inkscape:connector-curvature="0"
         id="path4580-0"
         d="M 2.58187,-73.04418 16.10234,-73.29445 C 15.81092,-25.74544 3.17364,-1.35693 8.91543,26.384806 L 33.16717,26.59447"
         style="fill:none;stroke:#000000;stroke-width:0.40000001;stroke-linecap:butt;stroke-linejoin:miter;stroke-miterlimit:4;stroke-dasharray:0.4, 1.19999999;stroke-dashoffset:0;stroke-opacity:1" />
      <path
         id="circle824-9"
         d="M 20.86103,19.906059 A 3.3677082,3.3677082 0 0 1 17.49332,23.273769 3.3677082,3.3677082 0 0 1 14.12561,19.906059 3.3677082,3.3677082 0 0 1 17.49332,16.538359 3.3677082,3.3677082 0 0 1 20.86103,19.906059 Z"
         style="opacity:1;vector-effect:none;fill:none;fill-opacity:1;fill-rule:evenodd;stroke:#000000;stroke-width:0.40000001;stroke-linecap:butt;stroke-linejoin:miter;stroke-miterlimit:4;stroke-dasharray:none;stroke-dashoffset:0;stroke-opacity:1"
         inkscape:connector-curvature="0" />
      <path
         id="circle828-1"
         d="M 18.14446,3.51517 A 2.3677084,2.3677084 0 0 1 15.77675,5.88288 2.3677084,2.3677084 0 0 1 13.40904,3.51517 2.3677084,2.3677084 0 0 1 15.77675,1.14746 2.3677084,2.3677084 0 0 1 18.14446,3.51517 Z"
         style="opacity:1;vector-effect:none;fill:none;fill-opacity:1;fill-rule:evenodd;stroke:#000000;stroke-width:0.40000001;stroke-linecap:butt;stroke-linejoin:miter;stroke-miterlimit:4;stroke-dasharray:none;stroke-dashoffset:0;stroke-opacity:1"
         inkscape:connector-curvature="0" />
      <path
         id="circle824-9-9"
         d="M 20.93969,-12.75582 A 3.3677082,3.3677082 0 0 1 17.57198,-9.38811 3.3677082,3.3677082 0 0 1 14.20427,-12.75582 3.3677082,3.3677082 0 0 1 17.57198,-16.12352 3.3677082,3.3677082 0 0 1 20.93969,-12.75582 Z"
         style="opacity:1;vector-effect:none;fill:none;fill-opacity:1;fill-rule:evenodd;stroke:#000000;stroke-width:0.40000001;stroke-linecap:butt;stroke-linejoin:miter;stroke-miterlimit:4;stroke-dasharray:none;stroke-dashoffset:0;stroke-opacity:1"
         inkscape:connector-curvature="0" />
      <path
         id="circle824-9-1"
         d="M 26.91744,-45.94809 A 3.3677082,3.3677082 0 0 1 23.54973,-42.58038 3.3677082,3.3677082 0 0 1 20.18202,-45.94809 3.3677082,3.3677082 0 0 1 23.54973,-49.31579 3.3677082,3.3677082 0 0 1 26.91744,-45.94809 Z"
         style="opacity:1;vector-effect:none;fill:none;fill-opacity:1;fill-rule:evenodd;stroke:#000000;stroke-width:0.40000001;stroke-linecap:butt;stroke-linejoin:miter;stroke-miterlimit:4;stroke-dasharray:none;stroke-dashoffset:0;stroke-opacity:1"
         inkscape:connector-curvature="0" />
      <path
         id="circle824-9-5"
         d="M 26.99609,-78.51112 A 3.3677082,3.3677082 0 0 1 23.62838,-75.14341 3.3677082,3.3677082 0 0 1 20.26067,-78.51112 3.3677082,3.3677082 0 0 1 23.62838,-81.87882 3.3677082,3.3677082 0 0 1 26.99609,-78.51112 Z"
         style="opacity:1;vector-effect:none;fill:none;fill-opacity:1;fill-rule:evenodd;stroke:#000000;stroke-width:0.40000001;stroke-linecap:butt;stroke-linejoin:miter;stroke-miterlimit:4;stroke-dasharray:none;stroke-dashoffset:0;stroke-opacity:1"
         inkscape:connector-curvature="0" />
      <path
         id="circle828-1-07"
         d="M 23.00722,-29.03733 A 2.3677084,2.3677084 0 0 1 20.63951,-26.66962 A 2.3677084,2.3677084 0 0 1 18.2718,-29.03733 A 2.3677084,2.3677084 0 0 1 20.63951,-31.40504 A 2.3677084,2.3677084 0 0 1 23.00722,-29.03733 Z"
         style="opacity:1;vector-effect:none;fill:none;fill-opacity:1;fill-rule:evenodd;stroke:#000000;stroke-width:0.40000001;stroke-linecap:butt;stroke-linejoin:miter;stroke-miterlimit:4;stroke-dasharray:none;stroke-dashoffset:0;stroke-opacity:1"
         inkscape:connector-curvature="0" />
      <path
         id="circle828-1-6"
         d="M 28.35574,-62.2296 A 2.3677084,2.3677084 0 0 1 25.98803,-59.86189 2.3677084,2.3677084 0 0 1 23.62032,-62.2296 2.3677084,2.3677084 0 0 1 25.98803,-64.59731 2.3677084,2.3677084 0 0 1 28.35574,-62.2296 Z"
         style="opacity:1;vector-effect:none;fill:none;fill-opacity:1;fill-rule:evenodd;stroke:#000000;stroke-width:0.40000001;stroke-linecap:butt;stroke-linejoin:miter;stroke-miterlimit:4;stroke-dasharray:none;stroke-dashoffset:0;stroke-opacity:1"
         inkscape:connector-curvature="0" />
      <path
         id="circle828-1-2"
         d="M 11.36633,-81.42133 A 2.3677084,2.3677084 0 0 1 8.99862,-79.05362 2.3677084,2.3677084 0 0 1 6.63091,-81.42133 2.3677084,2.3677084 0 0 1 8.99862,-83.78904 2.3677084,2.3677084 0 0 1 11.36633,-81.42133 Z"
         style="opacity:1;vector-effect:none;fill:none;fill-opacity:1;fill-rule:evenodd;stroke:#000000;stroke-width:0.40000001;stroke-linecap:butt;stroke-linejoin:miter;stroke-miterlimit:4;stroke-dasharray:none;stroke-dashoffset:0;stroke-opacity:1"
         inkscape:connector-curvature="0" />
      <path
         style="opacity:1;vector-effect:none;fill:none;fill-opacity:1;fill-rule:evenodd;stroke:#000000;stroke-width:0.40000001;stroke-linecap:butt;stroke-linejoin:miter;stroke-miterlimit:4;stroke-dasharray:none;stroke-dashoffset:0;stroke-opacity:1"
         d="M 0.05089,60.58441 1e-5,1e-5 C -5.21997,12.00324 -13.30076,16.518241 -19.80718,16.714114"
         id="extension-end-shape"
         inkscape:connector-curvature="0"
         sodipodi:nodetypes="ccc" />
      <path
         style="opacity:1;vector-effect:none;fill:#ffffff;fill-opacity:1;fill-rule:evenodd;stroke:#000000;stroke-width:0.40000001;stroke-linecap:butt;stroke-linejoin:miter;stroke-miterlimit:4;stroke-dasharray:none;stroke-dashoffset:0;stroke-opacity:1"
         d="M 59.71778,31.544017 38.79707,39.692377 31.34454,40.144647 V 32.869097 L 38.77741,33.212677 57.59554,30.010057 C 58.74878,29.960957 59.48203,30.439747 59.71778,31.544017 Z"
         id="bass-nut-sideview-shape"
         inkscape:connector-curvature="0"
         sodipodi:nodetypes="ccccccc" />
    </g>
    <g
       id="theorbohead-front">
      <path
         inkscape:connector-curvature="0"
         id="extension-front-end"
         d="M -13.397815,-55.606135 13.397845,-55.567735"
         style="opacity:1;vector-effect:none;fill:none;fill-opacity:1;fill-rule:evenodd;stroke:#ededed;stroke-width:0.40000001;stroke-linecap:butt;stroke-linejoin:miter;stroke-miterlimit:4;stroke-dasharray:none;stroke-dashoffset:0;stroke-opacity:1" />
      <path
         sodipodi:nodetypes="ccccccccc"
         inkscape:connector-curvature="0"
         id="path4877-9"
         d="M -10.444965,-149.57781 -13.237165,-28.872425 H 13.237175 L 10.444975,-149.57781 H 17.428935 L 23.543135,5e-6 H -23.543125 L -17.428905,-149.57781 Z"
         style="fill:#ffffff;fill-opacity:1;stroke:#020000;stroke-width:0.40000001;stroke-miterlimit:4;stroke-dasharray:none;stroke-opacity:1" />
      <path
         style="opacity:1;vector-effect:none;fill:#ffffff;fill-opacity:1;fill-rule:evenodd;stroke:#000000;stroke-width:0.40000001;stroke-linecap:butt;stroke-linejoin:miter;stroke-miterlimit:4;stroke-dasharray:none;stroke-dashoffset:0;stroke-opacity:1"
         d="M -10.896905,-130.04056 H 10.896925"
         id="path-3223534"
         inkscape:connector-curvature="0" />
      <path
         style="opacity:1;vector-effect:none;fill:#ffffff;fill-opacity:1;fill-rule:evenodd;stroke:#000000;stroke-width:0.40000001;stroke-linecap:butt;stroke-linejoin:miter;stroke-miterlimit:4;stroke-dasharray:none;stroke-dashoffset:0;stroke-opacity:1"
         d="M 9.722615,-24.085825 C 10.701795,-21.804115 13.238505,-17.393375 17.885535,-17.175925 19.037745,-19.636015 22.856955,-18.242865 22.737045,-16.146465 H -23.026975 C -24.468465,-18.351075 -25.105875,-21.082115 -25.431215,-24.017475"
         id="bass-nut-bottom"
         inkscape:connector-curvature="0"
         sodipodi:nodetypes="ccccc" />
      <path
         style="opacity:1;vector-effect:none;fill:#ffffff;fill-opacity:1;fill-rule:evenodd;stroke:#000000;stroke-width:0.40000001;stroke-linecap:butt;stroke-linejoin:miter;stroke-miterlimit:4;stroke-dasharray:none;stroke-dashoffset:0;stroke-opacity:1"
         d="M 9.763145,-24.027305 8.742355,-24.020355 -25.427525,-24.027305 C -25.316325,-25.238545 -24.993785,-25.412935 -24.752535,-25.423425 H 11.031455"
         id="bass-nut-top"
         inkscape:connector-curvature="0"
         sodipodi:nodetypes="ccccc" />
      <path
         style="opacity:1;vector-effect:none;fill:none;fill-opacity:1;fill-rule:evenodd;stroke:#000000;stroke-width:0.40000001;stroke-linecap:butt;stroke-linejoin:miter;stroke-miterlimit:4;stroke-dasharray:none;stroke-dashoffset:0;stroke-opacity:1"
         d="M 9.763145,-24.027305 C 10.170195,-25.516725 11.203415,-25.690895 11.755055,-25.128245 13.848865,-23.119055 15.579165,-22.996845 17.795755,-23.139425 18.091925,-24.400725 21.635815,-25.461715 22.760825,-22.490525 L 22.809985,-16.083185"
         id="path853-1"
         inkscape:connector-curvature="0"
         sodipodi:nodetypes="ccccc" />
      <path
         style="opacity:1;vector-effect:none;fill:none;fill-opacity:1;fill-rule:evenodd;stroke:#000000;stroke-width:0.40000001;stroke-linecap:butt;stroke-linejoin:miter;stroke-miterlimit:4;stroke-dasharray:none;stroke-dashoffset:0;stroke-opacity:1"
         d="M 17.766255,-23.152275 17.835075,-17.223675"
         id="path857-8"
         inkscape:connector-curvature="0"
         sodipodi:nodetypes="cc" />
      <path
         style="opacity:1;vector-effect:none;fill:#ffffff;fill-opacity:1;fill-rule:evenodd;stroke:#000000;stroke-width:0.40000001;stroke-linecap:butt;stroke-linejoin:miter;stroke-miterlimit:4;stroke-dasharray:none;stroke-dashoffset:0;stroke-opacity:1"
         d="M -22.117585,-37.821945 H -13.030145 M 13.030145,-37.821945 H 22.117595"
         id="path5443"
         inkscape:connector-curvature="0"
         sodipodi:nodetypes="cccc" />
      <path
         sodipodi:nodetypes="cccc"
         inkscape:connector-curvature="0"
         id="path5445"
         d="M -22.362925,-28.872425 H -13.237165 M 13.237175,-28.872425 H 22.362935"
         style="opacity:1;vector-effect:none;fill:#ffffff;fill-opacity:1;fill-rule:evenodd;stroke:#000000;stroke-width:0.40000001;stroke-linecap:butt;stroke-linejoin:miter;stroke-miterlimit:4;stroke-dasharray:none;stroke-dashoffset:0;stroke-opacity:1" />
    </g>
  </g>
</svg>
